<?xml version="1.0" encoding="iso-8859-1"?>
<!-- Generator: Adobe Illustrator 19.0.0, SVG Export Plug-In . SVG Version: 6.00 Build 0)  -->
<svg version="1.1" id="Capa_1" xmlns="http://www.w3.org/2000/svg" xmlns:xlink="http://www.w3.org/1999/xlink" x="0px" y="0px"
	 viewBox="0 0 512 512" style="enable-background:new 0 0 512 512;" xml:space="preserve">
<path style="fill:#653064;" d="M512,256c0,70.433-28.533,134.229-74.683,180.399c-16.064,16.085-34.263,30.034-54.14,41.378
	c-3.24,1.865-6.532,3.646-9.865,5.355c-0.063,0.031-0.135,0.073-0.198,0.104c-34.888,17.897-74.433,27.992-116.342,27.992
	c-41.837,0-81.319-10.063-116.165-27.898c-18.824-9.647-36.294-21.564-52.056-35.409c-4.302-3.75-8.469-7.667-12.511-11.709
	c-20.95-21.022-38.263-45.66-50.91-72.922c-2.729-5.855-5.23-11.834-7.501-17.928c-3.386-9.042-6.271-18.345-8.615-27.846
	c-2.698-10.897-4.698-22.064-5.938-33.461C2.065,274.845,1.544,265.48,1.544,256c0-16.376,1.542-32.398,4.5-47.91
	c2.74-14.491,6.719-28.554,11.813-42.055C38.693,110.718,78.196,64.548,128.679,35.202c3.782-2.209,7.626-4.313,11.522-6.313
	c0.083-0.042,0.156-0.083,0.229-0.125c11.272-5.782,23.043-10.761,35.221-14.834c25.481-8.532,52.764-13.157,81.121-13.157
	c61.38,0,117.697,21.668,161.721,57.775c5.375,4.396,10.553,9.011,15.543,13.834c8.053,7.771,15.595,16.064,22.564,24.835
	c3.74,4.688,7.313,9.522,10.72,14.48C495.509,152.742,512,202.454,512,256z"/>
<path style="fill:#E6DDDD;" d="M230.562,258.459c0.906,0.313,1.792,0.625,2.688,0.927l-1.167,3.396l-23.085,55.661L140.607,483.33
	c-23.96-12.282-45.733-28.231-64.567-47.118l59.036-142.886l21.46-51.952c-20.793-14.595-37.815-35.065-48.243-60.275
	c-22.293-54.025-7.782-114.04,31.909-152.21c0.063-0.063,0.125-0.125,0.188-0.188c0,0,0.01,0.021,0.042,0.063
	c2.073,2.74,75.995,100.237,95.768,100.237C227.895,149.044,207.539,251.125,230.562,258.459z"/>
<path style="fill:#F2E9E8;" d="M140.386,28.698c-12.129,77.416,34.627,114.277,37.49,116.439c8.32-20.091,24.33-36.989,46.011-45.94
	l-40.626-98.41C166.865,7.561,152.459,17.113,140.386,28.698z"/>
<path style="fill:#CCC4C4;" d="M171.755,246.541l-83.204,201.38c-4.302-3.75-8.469-7.667-12.511-11.709l80.496-194.838
	L171.755,246.541z"/>
<path style="fill:#DD316B;" d="M507.292,85.049c-13.918,11.459-27.2,20.189-39.972,26.648
	c-22.148,11.188-42.774,15.564-62.547,15.564c-34.378,0-66.203-13.22-98.976-26.835c-39.743-16.501-80.84-33.565-131.739-29.971
	c-42.295,2.99-75.631,20.095-96.403,49.462c-20.616,29.148-26.794,68.787-16.533,106.039c9.97,36.128,7.73,67.943-6.844,97.258
	c-6.803,13.678-16.314,26.815-29.148,40.076c-2.729-5.855-5.23-11.834-7.501-17.928c8.928-10.001,15.751-19.887,20.793-30.034
	c12.543-25.231,14.387-52.921,5.636-84.673c-11.668-42.305-4.511-87.528,19.137-120.968c16.699-23.596,49.264-52.629,109.613-56.89
	c55.088-3.896,100.081,14.793,139.782,31.273c30.065,12.491,58.473,24.283,87.809,25.335c19.126,0.677,37.545-3.261,56.202-12.188
	c12.928-6.167,25.971-14.741,39.43-25.835L507.292,85.049z"/>
<path style="fill:#61CBCE;" d="M506.823,26.743c-24.606,22.158-48.431,37.18-72.787,45.639c-15.095,5.261-30.398,8.001-46.202,8.365
	c-36.43,0.844-69.891-10.98-105.321-23.512c-39.795-14.064-80.944-28.617-128.822-25.231c-8.646,0.615-17.001,1.677-25.012,3.198
	c-38.784,7.313-69.776,24.95-88.736,50.91c-15.887,21.741-23.325,48.92-22.085,79.923c0.49,12.428,2.375,25.471,5.667,39.024
	c8.542,35.18,3.521,73.724-14.512,112.457c-2.698-10.897-4.698-22.064-5.938-33.461c7.938-25.95,9.032-50.983,3.24-74.808
	c-0.094-0.385-0.188-0.771-0.271-1.156C-6.363,155.982,0.409,110.208,25.64,75.663c26.012-35.597,71.037-57.379,126.801-61.317
	c7.928-0.563,15.657-0.677,23.21-0.417c41.514,1.427,77.641,14.199,112.759,26.617c44.514,15.73,85.048,30.065,130.083,18.001
	c23.814-6.375,48.889-20.127,76.475-44.962L506.823,26.743z"/>
<path style="fill:#CCC4C4;" d="M288.989,99.197l-0.057,0.129c19.991,8.349,25.591,62.424,34.513,84.034
	c0,0,108.342-48.962,48.846-154.847l0.015-0.015c-12.044-11.485-26.378-20.993-42.689-27.724L288.989,99.197z"/>
<path style="fill:#E6DDDD;" d="M377.865,293.18l-21.512-51.806c20.793-14.595,37.805-35.076,48.212-60.275
	c22.377-54.192,7.719-114.405-32.263-152.606l-0.01,0.021c12.616,79.975-37.617,116.738-37.617,116.738
	c-8.928-21.606-25.752-37.576-45.743-45.931c-0.042-0.01-0.073-0.021-0.115-0.042c-20.043-8.334-43.274-9.022-64.932-0.083
	c-21.679,8.949-37.69,25.846-46.004,45.941c-8.313,20.033-8.98,43.232-0.042,64.859c9.938,24.085,29.7,41.128,52.723,48.462
	c0.906,0.313,1.792,0.625,2.688,0.927c16.626,5.573,33.669,7.771,50.337,6.959l21.314,51.629l68.214,165.263
	c23.814-12.22,45.462-28.075,64.203-46.837L377.865,293.18z"/>
<path style="fill:#F2E9E8;" d="M236.203,129.006c-26.85,11.091-39.648,41.831-28.556,68.681
	c11.091,26.85,41.831,39.623,68.681,28.531c26.825-11.066,39.623-41.806,28.531-68.656
	C293.793,130.712,263.028,117.939,236.203,129.006z"/>
<g>
	<path style="fill:#CCC4C4;" d="M241.754,142.467c-19.415,8.02-28.67,30.248-20.65,49.663c8.02,19.415,30.248,28.651,49.663,20.631
		c19.397-8.002,28.651-30.23,20.631-49.645C283.398,143.701,261.152,134.465,241.754,142.467z"/>
	<path style="fill:#CCC4C4;" d="M383.178,477.778c-3.24,1.865-6.532,3.646-9.865,5.355l-89.726-216.788l10.595-3.604
		L383.178,477.778z"/>
</g>
<g>
</g>
<g>
</g>
<g>
</g>
<g>
</g>
<g>
</g>
<g>
</g>
<g>
</g>
<g>
</g>
<g>
</g>
<g>
</g>
<g>
</g>
<g>
</g>
<g>
</g>
<g>
</g>
<g>
</g>
</svg>
